<svg width="36" height="37" viewBox="0 0 36 37" fill="none" xmlns="http://www.w3.org/2000/svg">
<path fill-rule="evenodd" clip-rule="evenodd" d="M7 34.6301C9.7614 34.6301 12 32.4044 12 29.659C12 26.9135 9.7614 24.6879 7 24.6879C4.2386 24.6879 2 26.9135 2 29.659C2 32.4044 4.2386 34.6301 7 34.6301ZM7 36.6185C10.866 36.6185 14 33.5026 14 29.659C14 25.8153 10.866 22.6994 7 22.6994C3.13401 22.6994 0 25.8153 0 29.659C0 33.5026 3.13401 36.6185 7 36.6185Z" fill="#9A1174" fill-opacity="0.79"/>
<path d="M8.75 29.659C8.75 30.6199 7.9665 31.3988 7 31.3988C6.0335 31.3988 5.25 30.6199 5.25 29.659C5.25 28.698 6.0335 27.9191 7 27.9191C7.9665 27.9191 8.75 28.698 8.75 29.659Z" fill="#9A1174" fill-opacity="0.79"/>
<path fill-rule="evenodd" clip-rule="evenodd" d="M29 34.6301C31.7614 34.6301 34 32.4044 34 29.659C34 26.9135 31.7614 24.6879 29 24.6879C26.2386 24.6879 24 26.9135 24 29.659C24 32.4044 26.2386 34.6301 29 34.6301ZM29 36.6185C32.866 36.6185 36 33.5026 36 29.659C36 25.8153 32.866 22.6994 29 22.6994C25.134 22.6994 22 25.8153 22 29.659C22 33.5026 25.134 36.6185 29 36.6185Z" fill="#9A1174" fill-opacity="0.79"/>
<path d="M30.75 29.659C30.75 30.6199 29.9665 31.3988 29 31.3988C28.0335 31.3988 27.25 30.6199 27.25 29.659C27.25 28.698 28.0335 27.9191 29 27.9191C29.9665 27.9191 30.75 28.698 30.75 29.659Z" fill="#9A1174" fill-opacity="0.79"/>
<path fill-rule="evenodd" clip-rule="evenodd" d="M29 12.7572C31.7614 12.7572 34 10.5316 34 7.78614C34 5.0407 31.7614 2.81504 29 2.81504C26.2386 2.81504 24 5.0407 24 7.78614C24 10.5316 26.2386 12.7572 29 12.7572ZM29 14.7457C32.866 14.7457 36 11.6298 36 7.78614C36 3.94249 32.866 0.826599 29 0.826599C25.134 0.826599 22 3.94249 22 7.78614C22 11.6298 25.134 14.7457 29 14.7457Z" fill="#9A1174" fill-opacity="0.79"/>
<path d="M30.75 7.78612C30.75 8.74703 29.9665 9.526 29 9.526C28.0335 9.526 27.25 8.74703 27.25 7.78612C27.25 6.82521 28.0335 6.04623 29 6.04623C29.9665 6.04623 30.75 6.82521 30.75 7.78612Z" fill="#9A1174" fill-opacity="0.79"/>
<path fill-rule="evenodd" clip-rule="evenodd" d="M7 12.7572C9.7614 12.7572 12 10.5316 12 7.78614C12 5.0407 9.7614 2.81504 7 2.81504C4.2386 2.81504 2 5.0407 2 7.78614C2 10.5316 4.2386 12.7572 7 12.7572ZM7 14.7457C10.866 14.7457 14 11.6298 14 7.78614C14 3.94249 10.866 0.826599 7 0.826599C3.13401 0.826599 0 3.94249 0 7.78614C0 11.6298 3.13401 14.7457 7 14.7457Z" fill="#9A1174" fill-opacity="0.79"/>
<path d="M8.75 7.78612C8.75 8.74703 7.9665 9.526 7 9.526C6.0335 9.526 5.25 8.74703 5.25 7.78612C5.25 6.82521 6.0335 6.04623 7 6.04623C7.9665 6.04623 8.75 6.82521 8.75 7.78612Z" fill="#9A1174" fill-opacity="0.79"/>
<path d="M7 29.659L12.72 18.4993L7.44 7.78613L18 13.1428L28.56 7.78613L23.28 18.4993L29 29.659L18 23.856L7 29.659Z" fill="#9A1174" fill-opacity="0.79"/>
</svg>
